<svg fill="none" xmlns="http://www.w3.org/2000/svg" viewBox="0 0 80 49">
  <path d="M6.44713 47.7771V6.41958H0V47.7771h6.44713ZM53.3605 47.7771V18.1245h-6.3911v29.6526h6.3911ZM73.4408 11.7147c1.3454 0 2.8591.5016 4.0925 1.3934L80 8.2032c-1.9061-1.39345-4.3168-2.0623-6.7274-2.0623-5.1577 0-10.2594 3.28853-10.2594 10.2v2.8984h-3.9243v4.7934h3.9243v23.7444h6.3911V24.0327h7.7926v-4.7934h-7.7926v-3.5115c0-2.7869 1.85-4.0131 4.0365-4.0131ZM19.7344 19.7042c-7.6154 4.5242-9.91515 12.9115-5.3804 20.6552 4.5066 7.6956 12.8015 9.8786 20.7354 5.2324 4.4507-2.6064 7.1978-6.3467 8.108-10.5614l-4.7819-1.3982c-.76 3.0288-2.7043 5.5884-5.5102 7.2316-4.0637 2.3797-8.5479 1.7115-11.7284-1.7225l19.4476-11.3887c-4.7306-9.6314-11.8436-13.3462-20.8901-8.0484Zm-1.0202 15.4536c-1.7652-4.4566-.4038-8.6772 3.6599-11.057 4.2088-2.4647 8.4309-1.5785 11.0468 2.4446l-14.7067 8.6124Z" fill="#333"/>
  <path d="M58.8362.563995c-.0175-.111848-.0609-.217163-.1263-.306254-.0653-.089091-.1504-.1590959-.2475-.2035735-.0971-.04447756-.2031-.06199896-.3082-.05095196-.105.01104696-.2058.05030766-.293.11416946-1.4379.942445-3.1063 1.398505-4.7885 1.308935-3.8622 0-5.4742 1.69175-5.5048 1.7307-.9034.71546-1.5584 1.73468-1.8611 2.89582-.3027 1.16113-.2357 2.39765.1903 3.51321.0229.05989.0291.1256.0181.18923-.0111.06363-.0391.12245-.0806.1694L44.167 11.8649c-.1076.1252-.1673.2895-.167.4599.0003.1704.0604.3344.1684.4593.1079.1248.2558.2013.4139.214.1582.0128.315-.0391.4391-.1453 1.0726-1.047 2.8221-4.20348 7.7406-6.41235.1537-.06739.3259-.06682.4792.00159.1533.0684.2753.1991.3393.36365.0641.16454.065.3496.0027.5149-.0624.1653-.1829.29745-.3355.36768-1.9637.86341-3.7532 2.12709-5.2698 3.72133l-.0056.0067-.145.1686c-.0319.0362-.056.0796-.0703.127-.0144.0474-.0187.0977-.0127.1471.006.0495.0221.0969.0473.1388.0252.0419.0587.0773.0982.1035.7983.5377 1.7217.8224 2.6639.8214 1.2681-.024 2.5106-.3871 3.6153-1.0564C59.65 8.62648 59.1256 2.3961 58.8362.563995Z" fill="#77E8C6"/>
</svg>
